<?xml version="1.0" encoding="utf-8"?>
<!-- Generator: Adobe Illustrator 16.0.0, SVG Export Plug-In . SVG Version: 6.00 Build 0)  -->
<!DOCTYPE svg PUBLIC "-//W3C//DTD SVG 1.1//EN" "http://www.w3.org/Graphics/SVG/1.1/DTD/svg11.dtd">
<svg version="1.1" id="Layer_1" xmlns="http://www.w3.org/2000/svg" xmlns:xlink="http://www.w3.org/1999/xlink" x="0px" y="0px"
	 width="419px" height="419px" viewBox="0 0 419 419" enable-background="new 0 0 419 419" xml:space="preserve">
<g id="New_Symbol">
</g>
<g>
	<path fill="#EE2A3D" d="M78.551,163.439c10.944-8.172,23.069-14.468,36.05-18.703c12.657-4.13,25.833-6.225,39.186-6.217
		c16.667,0.019,32.882,3.25,48.223,9.619c8.802,3.653,17.186,8.326,24.928,13.879c-2.278-8.09-5.609-15.836-9.934-23.125
		c-4.155-7-9.215-13.498-15.026-19.318c-9.084-9.086-19.658-16.189-31.426-21.104c-20.055-8.375-42.67-9.822-63.678-4.074
		c-4.606,1.262-9.157,2.869-13.531,4.792c-2.739,1.207-9.737,3.993-12.342,5.438c-20.837,12.081-32.586,29.936-40.883,52.931
		c-0.499,1.666-0.977,3.306-1.391,4.873c-0.017,0.047-0.024,0.097-0.04,0.146c-0.994,3.734-1.884,7.582-2.636,11.396
		c-3.247,16.47-4.191,40.945-2.718,57.655c3.586-9.372,10.517-24.454,16-32.667c5.028-8.036,8.682-16.841,15.444-23.6
		C69.053,171.079,73.686,167.069,78.551,163.439z"/>
	<path fill="#2CDBCA" d="M115.691,339.543c-5.778-12.012-9.578-24.84-11.308-38.111c-3.669-28.039,2.271-56.766,16.716-80.91
		c5.303-8.85,11.704-17.055,19.043-24.395c4.301-4.291,8.956-8.316,13.837-11.969c7.574-5.643,15.795-10.436,24.42-14.227
		c0.161-0.072,0.323-0.146,0.477-0.211c-8.148-2.175-16.554-3.266-25.105-3.273c-21.299-0.016-41.53,6.685-58.504,19.357
		c-3.799,2.839-7.413,5.967-10.751,9.297c-12.173,12.189-20.935,27.36-25.348,43.905c-1.447,5.44-2.434,11.073-2.926,16.724
		c-2.441,27.975,7.227,55.65,26.512,75.947c0.533,0.567,1.115,1.155,1.714,1.754c0.016,0.016,0.032,0.041,0.057,0.057
		c0.016,0.023,0.039,0.042,0.057,0.058c0.598,0.599,1.188,1.179,1.753,1.712c0.041,0.033,0.073,0.064,0.105,0.1
		c3.04,2.951,6.187,5.78,9.419,8.497c9.536,7.86,19.844,14.838,30.752,20.772c0.72,0.392,1.448,0.768,2.172,1.15
		c2.196,1.13,4.415,2.215,6.656,3.252C127.469,360.154,120.841,350.26,115.691,339.543z"/>
	<path fill="#EE2A3D" d="M251.873,380.232c1.196-0.291,2.399-0.598,3.33-0.848l0.023-0.008l0.146-0.034
		c0.178-0.065,0.356-0.104,0.541-0.146c21.55-5.812,41.813-15.721,59.678-29.083c-25.745,6.111-53.09,3.962-77.516-6.19
		c-15.229-6.322-28.904-15.48-40.632-27.215c-7.463-7.461-13.953-15.811-19.296-24.823c-8.713-14.679-14.25-30.748-16.472-47.745
		c-1.181-9.062-1.375-18.283-0.583-27.385c0.065-0.752,0.139-1.512,0.219-2.271c-0.476,0.469-0.953,0.922-1.423,1.39
		c-5.714,5.714-10.693,12.108-14.824,18.996c-7.372,12.324-11.872,26.195-13.3,40.447c-0.202,5.078-4.198,13.247-3.765,18.311
		c1.507,17.605,11.03,31.297,19.674,45.736c3.386,5.053,7.253,9.829,11.608,14.26c0.122,0.128,0.243,0.257,0.364,0.388
		c0.081,0.08,0.169,0.161,0.251,0.242c3.661,3.668,7.646,7.071,11.849,10.121C194.815,381.096,224.011,386.877,251.873,380.232z"/>
	<path fill="#2CDBCA" d="M380.588,253.002c0.007-0.022,0.014-0.045,0.022-0.073c0.007-0.028,0.014-0.055,0.021-0.081
		c0.228-0.836,0.443-1.66,0.639-2.441c0.011-0.051,0.022-0.099,0.035-0.146c1.354-5.232,2.474-10.512,3.369-15.818
		c2.076-14.044,2.624-32.189,1.325-46.314c-3.786,10.664-9.032,24.624-15.354,33.938c-7.689,11.337-17.047,21.335-27.813,29.72
		c-22.747,17.714-49.301,20.928-77.499,20.51c-10.341-0.15-20.656,2.079-30.667-0.667c-5.861-1.607-11.083-8.866-16.667-11.333
		c-2.53-1.119-7.108,5.467-9.557,4.177c-5.635-2.875-11.054-6.167-16.181-9.856c2.279,8.061,5.592,15.762,9.908,23.028
		c4.155,6.999,9.207,13.506,15.018,19.318c9.136,9.135,19.771,16.264,31.605,21.177c20.143,8.367,42.823,9.748,63.888,3.896
		c4.478-1.246,8.907-2.82,13.143-4.688c11.089-4.881,21.096-11.737,29.744-20.386c1.15-1.149,2.261-2.334,3.35-3.536
		c9.483-10.881,16.703-23.804,20.972-37.986C380.119,254.672,380.356,253.851,380.588,253.002z"/>
	<path fill="#EE2A3D" d="M334.844,83.281c-0.024-0.016-0.049-0.039-0.064-0.055c-0.016-0.025-0.033-0.041-0.058-0.057
		c-0.589-0.6-1.18-1.182-1.754-1.715c-0.032-0.031-0.064-0.065-0.096-0.097c-10.59-10.282-22.374-19.181-35.04-26.471
		c-4.535-2.612-9.206-5.029-13.96-7.228c16.943,18.923,27.611,42.12,30.917,67.443c3.662,28.04-2.287,56.767-16.723,80.903
		c-5.303,8.858-11.712,17.07-19.044,24.402c-4.282,4.274-8.915,8.284-13.772,11.921c-7.599,5.675-15.843,10.476-24.483,14.276
		c-0.227,0.104-0.444,0.2-0.679,0.3c8.261,2.222,16.78,3.354,25.453,3.361c21.273,0.008,41.482-6.676,58.455-19.334
		c3.815-2.839,7.438-5.982,10.783-9.32c12.189-12.189,20.951-27.359,25.355-43.908c1.446-5.438,2.433-11.055,2.934-16.713
		c2.441-27.967-7.226-55.66-26.511-75.955C336.015,84.471,335.442,83.879,334.844,83.281z"/>
	<path fill="#2CDBCA" d="M175.271,34.744c-3.799,0.752-7.63,1.643-11.396,2.645c-0.049,0.016-0.08,0.022-0.122,0.03
		c-0.008,0-0.023,0-0.031,0.008c-2.386,0.64-4.842,1.351-7.332,2.144c-13.288,4.188-26.067,9.941-37.973,17.102
		c-4.265,2.574-12.867,7.521-16.916,10.455c19.103-3.893,43.185-5.479,61.857-0.355c0.07,0.019,0.14,0.042,0.209,0.062
		c6.04,1.516,11.979,3.465,17.75,5.877c15.148,6.319,28.734,15.446,40.406,27.118c7.461,7.46,13.951,15.819,19.295,24.822
		c8.714,14.679,14.25,30.748,16.473,47.745c1.18,9.062,1.383,18.274,0.582,27.368c-0.061,0.726-0.129,1.44-0.197,2.155
		c-0.001,0.041-0.002,0.083-0.003,0.125c0.473-0.457,0.938-0.914,1.396-1.382c5.723-5.715,10.71-12.107,14.831-18.994
		c7.8-13.032,12.404-27.802,13.534-42.923c0.116-4.729,3.333-10.897,2.866-15.618c-1.937-19.579-12.338-36.711-23.439-52.049
		c-2.184-2.77-4.514-5.446-7.016-8.002l-0.364-0.381c-0.138-0.138-0.267-0.283-0.412-0.413c-3.605-3.611-7.517-6.968-11.64-9.974
		c-10.499-7.646-22.244-13.045-34.909-16.045C200.392,33.348,187.799,32.838,175.271,34.744z"/>
	<path fill="#38012F" d="M356.409,61.449c-81.104-81.096-212.572-81.096-293.669,0c-81.088,81.088-81.088,212.564,0,293.66
		c34.572,34.568,78.301,54.388,123.378,59.482v0.451c7.722,0.869,15.565,1.331,23.519,1.331c8.821,0,17.514-0.555,26.046-1.62
		v-0.478c44.138-5.562,86.833-25.276,120.727-59.167C437.497,274.014,437.497,142.537,356.409,61.449z M297.832,54.888
		c12.666,7.29,24.45,16.188,35.04,26.471c0.031,0.031,0.063,0.065,0.096,0.097c0.574,0.533,1.165,1.115,1.754,1.715
		c0.024,0.016,0.042,0.031,0.058,0.057c0.016,0.016,0.04,0.039,0.064,0.055c0.599,0.598,1.171,1.189,1.714,1.756
		c19.285,20.295,28.952,47.988,26.511,75.955c-0.501,5.658-1.487,11.275-2.934,16.713c-4.404,16.549-13.166,31.719-25.355,43.908
		c-3.346,3.338-6.968,6.481-10.783,9.32c-16.973,12.658-37.182,19.342-58.455,19.334c-8.673-0.008-17.192-1.14-25.453-3.361
		c0.234-0.1,0.452-0.195,0.679-0.3c8.641-3.801,16.885-8.602,24.483-14.276c4.857-3.637,9.49-7.646,13.772-11.921
		c7.332-7.332,13.741-15.544,19.044-24.402c14.436-24.137,20.385-52.863,16.723-80.903c-3.306-25.323-13.974-48.521-30.917-67.443
		C288.626,49.858,293.297,52.275,297.832,54.888z M118.416,56.672c11.905-7.16,24.685-12.914,37.973-17.102
		c2.49-0.793,4.946-1.504,7.332-2.144c0.008-0.008,0.023-0.008,0.031-0.008c0.042-0.008,0.073-0.015,0.122-0.03
		c3.767-1.002,7.598-1.893,11.396-2.645c12.528-1.906,25.121-1.396,37.449,1.52c12.665,3,24.41,8.398,34.909,16.045
		c4.123,3.006,8.034,6.362,11.64,9.974c0.146,0.13,0.274,0.275,0.412,0.413l0.364,0.381c14.937,15.259,24.288,34.512,27.044,55.642
		c2.862,21.831-1.761,44.188-12.989,62.95c-4.121,6.887-9.108,13.279-14.831,18.994c-0.461,0.471-0.931,0.931-1.406,1.391
		c0.072-0.76,0.146-1.519,0.21-2.289c0.801-9.094,0.598-18.307-0.582-27.368c-2.223-16.997-7.759-33.066-16.473-47.745
		c-5.344-9.003-11.834-17.362-19.295-24.822c-11.672-11.672-25.258-20.799-40.406-27.118c-24.313-10.16-51.552-12.399-77.224-6.419
		C108.716,62.85,113.501,59.639,118.416,56.672z M236.951,200.557c-1.082,9.635-3.476,19.02-7.129,27.951
		c-8.947,3.662-18.34,6.055-27.991,7.138c-3.638-2.806-7.12-5.852-10.362-9.102c-3.307-3.307-6.401-6.855-9.246-10.573
		c1.074-9.635,3.476-19.012,7.129-27.934c8.915-3.652,18.274-6.047,27.901-7.129c3.735,2.844,7.274,5.956,10.59,9.263
		C231.092,193.42,234.146,196.912,236.951,200.557z M36.051,173.973c0.752-3.814,1.642-7.662,2.636-11.396
		c0.016-0.049,0.023-0.099,0.04-0.146c0.581-2.198,1.261-4.512,1.997-6.888c4.889-13.578,12.577-25.688,22.873-35.969
		c8.641-8.648,18.656-15.502,29.745-20.386c4.374-1.923,8.925-3.53,13.531-4.792c21.008-5.748,43.623-4.301,63.678,4.074
		c11.768,4.914,22.342,12.018,31.426,21.104c5.812,5.82,10.871,12.318,15.026,19.318c4.324,7.289,7.655,15.035,9.934,23.125
		c-7.742-5.553-16.126-10.226-24.928-13.879c-15.341-6.369-31.556-9.601-48.223-9.619c-13.353-0.008-26.528,2.087-39.186,6.217
		c-12.98,4.235-25.105,10.531-36.05,18.703c-4.865,3.63-9.498,7.64-13.773,11.922c-14.396,14.389-25.082,32.057-31.119,51.359
		C31.848,209.156,32.632,191.311,36.051,173.973z M86.439,335.357c-0.032-0.035-0.064-0.066-0.105-0.1
		c-0.565-0.533-1.155-1.113-1.753-1.712c-0.018-0.016-0.041-0.034-0.057-0.058c-0.024-0.016-0.041-0.041-0.057-0.057
		c-0.599-0.599-1.181-1.187-1.714-1.754c-19.285-20.297-28.953-47.973-26.512-75.947c0.492-5.65,1.479-11.283,2.926-16.724
		c4.413-16.545,13.175-31.716,25.348-43.905c3.338-3.33,6.952-6.458,10.751-9.297c16.974-12.673,37.205-19.373,58.504-19.357
		c8.552,0.008,16.957,1.099,25.105,3.273c-0.153,0.064-0.315,0.139-0.477,0.211c-8.625,3.791-16.846,8.584-24.42,14.227
		c-4.881,3.652-9.536,7.678-13.837,11.969c-7.339,7.34-13.74,15.545-19.043,24.395c-14.444,24.145-20.385,52.871-16.716,80.91
		c1.729,13.271,5.529,26.1,11.308,38.111c5.149,10.717,11.777,20.611,19.747,29.486C117.414,360.688,100.811,349.308,86.439,335.357
		z M255.913,379.197c-0.185,0.041-0.363,0.08-0.541,0.146l-0.146,0.034l-0.023,0.008c-0.931,0.25-2.134,0.557-3.33,0.848
		c-27.862,6.645-57.058,0.863-80.127-15.857c-4.203-3.05-8.188-6.453-11.849-10.121c-0.082-0.081-0.17-0.162-0.251-0.242
		c-0.121-0.131-0.242-0.26-0.364-0.388c-15.033-15.294-24.442-34.597-27.207-55.806c-2.853-21.832,1.763-44.182,12.989-62.948
		c4.131-6.888,9.11-13.282,14.824-18.996c0.47-0.468,0.947-0.921,1.423-1.39c-0.08,0.76-0.153,1.52-0.219,2.271
		c-0.792,9.102-0.598,18.322,0.583,27.385c2.222,16.997,7.759,33.066,16.472,47.745c5.343,9.013,11.833,17.362,19.296,24.823
		c11.728,11.734,25.403,20.893,40.632,27.215c24.426,10.152,51.771,12.302,77.516,6.19
		C297.727,363.477,277.463,373.385,255.913,379.197z M380.625,254.123c-0.016,0.058-0.032,0.112-0.049,0.17
		c-0.008,0.041-0.023,0.088-0.031,0.145c-4.511,15.996-13.144,30.699-24.978,42.524c-8.648,8.648-18.655,15.505-29.744,20.386
		c-4.235,1.867-8.665,3.441-13.143,4.688c-21.064,5.852-43.745,4.471-63.888-3.896c-11.834-4.913-22.47-12.042-31.605-21.177
		c-5.811-5.812-10.862-12.319-15.018-19.318c-4.316-7.267-7.629-14.968-9.908-23.028c7.694,5.537,16.036,10.201,24.798,13.862
		c15.406,6.435,31.709,9.699,48.457,9.715c13.337,0.008,26.521-2.084,39.162-6.208c12.965-4.225,25.089-10.506,36.017-18.67
		c4.883-3.638,9.538-7.662,13.838-11.963c14.388-14.396,25.073-32.057,31.111-51.357c2.005,19.398,0.832,39.105-3.548,58.155
		C381.604,250.316,381.118,252.271,380.625,254.123z"/>
</g>
</svg>
