<?xml version="1.0" encoding="utf-8"?>
<!-- Generator: Adobe Illustrator 16.0.0, SVG Export Plug-In . SVG Version: 6.00 Build 0)  -->
<!DOCTYPE svg PUBLIC "-//W3C//DTD SVG 1.1//EN" "http://www.w3.org/Graphics/SVG/1.1/DTD/svg11.dtd">
<svg version="1.1" id="Layer_1" xmlns="http://www.w3.org/2000/svg" xmlns:xlink="http://www.w3.org/1999/xlink" x="0px" y="0px"
	 width="450px" height="325px" viewBox="0 0 450 325" enable-background="new 0 0 450 325" xml:space="preserve">
<g id="New_Symbol">
</g>
<rect x="-2280.224" y="-1087.063" fill="#FFD92C" width="3069.224" height="2088.92"/>
<g>
	<path fill="#38012F" d="M75.518,231.271h23.918c1.935,0,3.342,0.222,4.22,0.658c0.878,0.441,1.464,1.132,1.759,2.066
		c0.292,0.939,0.439,2.188,0.439,3.739c0,1.554-0.147,2.8-0.439,3.736c-0.295,0.939-0.793,1.585-1.496,1.935
		c-1.114,0.587-2.637,0.879-4.573,0.879H67.69c-4.104,0-6.507-1.113-7.211-3.341c-0.35-0.937-0.526-2.431-0.526-4.484v-48.893
		c0-1.345,0.042-2.358,0.132-3.034c0.086-0.673,0.364-1.449,0.835-2.328c0.82-1.584,3.106-2.374,6.858-2.374
		c4.104,0,6.536,1.084,7.298,3.253c0.295,0.998,0.442,2.521,0.442,4.572V231.271z"/>
	<path fill="#38012F" d="M114.559,203.749c4.926-4.573,10.552-6.86,16.885-6.86c6.332,0,11.928,2.271,16.793,6.816
		c4.865,4.543,7.302,10.33,7.302,17.367c0,4.863-1.264,9.187-3.783,12.97c-2.521,3.78-5.583,6.564-9.189,8.354
		c-3.605,1.787-7.343,2.682-11.212,2.682c-3.869,0-7.622-0.953-11.255-2.858c-3.636-1.905-6.698-4.72-9.189-8.442
		c-2.493-3.721-3.737-7.926-3.737-12.618C107.173,214.125,109.633,208.321,114.559,203.749z M125.032,228.022
		c2.044,1.565,4.119,2.347,6.227,2.347c2.108,0,4.216-0.798,6.322-2.395c2.106-1.595,3.161-3.957,3.161-7.088
		c0-3.128-0.99-5.461-2.97-6.992c-1.98-1.532-4.118-2.3-6.417-2.3c-2.298,0-4.439,0.801-6.417,2.395
		c-1.98,1.599-2.97,3.945-2.97,7.041C121.968,224.129,122.987,226.46,125.032,228.022z"/>
	<path fill="#38012F" d="M176.992,228.721c1.935,0,3.37,0.499,4.309,1.497c0.937,0.996,1.407,3.047,1.407,6.154
		s-0.498,5.174-1.495,6.198c-0.998,1.025-2.433,1.541-4.31,1.541c-5.92,0-10.083-1.422-12.486-4.267
		c-2.405-2.843-3.604-7.575-3.604-14.201v-41.947c0-1.345,0.044-2.355,0.132-3.031c0.086-0.674,0.335-1.451,0.746-2.331
		c0.821-1.522,3.107-2.285,6.859-2.285c3.575,0,5.804,0.82,6.682,2.461c0.47,0.822,0.749,1.569,0.836,2.242
		c0.088,0.675,0.133,1.686,0.133,3.034v42.209C176.202,227.812,176.464,228.721,176.992,228.721z M200.648,228.191
		c0.467,0.355,1.671,0.529,3.603,0.529c1.936,0,3.548,0.499,4.837,1.497c1.29,0.996,1.935,3.047,1.935,6.154
		s-0.69,5.174-2.066,6.198c-1.378,1.025-3.298,1.541-5.76,1.541c-12.43,0-18.641-6.157-18.641-18.468l-0.09-41.947
		c0-1.345,0.044-2.355,0.133-3.031c0.089-0.674,0.364-1.451,0.835-2.331c0.879-1.522,3.165-2.285,6.858-2.285
		c3.576,0,5.804,0.82,6.684,2.461c0.644,1.29,0.967,3.048,0.967,5.276v42.209C199.943,227.109,200.177,227.841,200.648,228.191z"/>
	<path fill="#38012F" d="M251.473,198.473c3.458,1.524,5.188,3.368,5.188,5.538c0,1.055-0.233,2.053-0.703,2.989
		c-0.469,0.939-0.703,1.438-0.703,1.495l-23.04,51.531c-0.469,1.111-0.865,1.964-1.187,2.55c-0.322,0.585-0.833,1.143-1.539,1.671
		c-0.702,0.526-1.582,0.792-2.636,0.792c-1.056,0-2.61-0.439-4.661-1.32c-3.458-1.524-5.189-3.341-5.189-5.45
		c0-1.408,2.814-8.122,8.443-20.139l-17.499-29.459c-1.175-1.935-1.759-3.369-1.759-4.309c0-1.874,1.582-3.75,4.748-5.629
		c1.993-1.17,3.547-1.757,4.66-1.757c1.115,0,2.026,0.236,2.727,0.703c0.703,0.47,1.216,0.954,1.539,1.452
		c0.321,0.497,1.934,3.223,4.836,8.177c2.902,4.954,5.67,9.571,8.311,13.85c0.292-0.937,1.874-4.559,4.748-10.859
		c2.872-6.3,4.411-9.656,4.617-10.069c0.205-0.41,0.541-0.907,1.011-1.496c0.761-0.996,1.833-1.492,3.209-1.492
		C247.97,197.241,249.598,197.651,251.473,198.473z"/>
	<path fill="#38012F" d="M311.488,192.843c1.526,3.107,2.288,6.566,2.288,10.378c0,3.81-0.762,7.253-2.288,10.331
		c-1.525,3.077-3.489,5.525-5.891,7.344c-4.867,3.751-9.909,5.627-15.125,5.627H279.48v9.937c0,1.35-0.044,2.36-0.135,3.034
		c-0.086,0.674-0.366,1.45-0.833,2.331c-0.823,1.581-3.108,2.373-6.86,2.373c-4.104,0-6.505-1.083-7.21-3.254
		c-0.351-0.996-0.527-2.521-0.527-4.571v-48.806c0-1.345,0.044-2.358,0.13-3.034c0.089-0.673,0.366-1.449,0.837-2.328
		c0.818-1.584,3.106-2.374,6.86-2.374h18.817c5.157,0,10.17,1.876,15.037,5.627C307.999,187.275,309.962,189.737,311.488,192.843z
		 M295.989,209.229c1.761-1.334,2.64-3.336,2.64-6.007c0-2.67-0.878-4.69-2.64-6.056s-3.581-2.048-5.461-2.048h-11.162v16.115
		h11.252C292.439,211.233,294.228,210.565,295.989,209.229z"/>
	<path fill="#38012F" d="M347.144,202.869c0.353-3.283,2.668-4.925,6.947-4.925c2.286,0,3.987,0.175,5.103,0.528
		c1.111,0.353,1.89,0.967,2.329,1.844c0.438,0.88,0.703,1.659,0.79,2.332c0.089,0.674,0.133,1.687,0.133,3.032v30.778
		c0,1.35-0.044,2.36-0.133,3.034c-0.086,0.674-0.336,1.45-0.746,2.331c-0.822,1.524-2.829,2.287-6.023,2.287
		c-3.196,0-5.337-0.396-6.419-1.189c-1.087-0.792-1.716-1.949-1.891-3.472c-2.17,3.107-5.791,4.661-10.859,4.661
		c-5.073,0-9.776-2.316-14.115-6.947c-4.339-4.631-6.505-10.011-6.505-16.137c0-6.127,2.183-11.489,6.549-16.094
		c4.367-4.601,9.16-6.902,14.378-6.902c1.994,0,3.812,0.353,5.452,1.054c1.641,0.705,2.784,1.365,3.43,1.98
		C346.206,201.681,346.732,202.282,347.144,202.869z M330.591,221.169c0,2.071,0.815,3.941,2.448,5.605
		c1.633,1.665,3.613,2.494,5.936,2.494c2.324,0,4.255-0.847,5.795-2.539c1.539-1.697,2.31-3.566,2.31-5.609
		c0-2.039-0.739-3.941-2.215-5.699c-1.477-1.758-3.453-2.639-5.934-2.639c-2.482,0-4.493,0.881-6.031,2.639
		C331.359,217.179,330.591,219.096,330.591,221.169z"/>
	<path fill="#38012F" d="M368.381,183.873c0-1.347,0.044-2.36,0.131-3.032c0.088-0.674,0.337-1.452,0.747-2.331
		c0.822-1.582,3.108-2.375,6.86-2.375c3.576,0,5.802,0.793,6.683,2.375c0.467,0.879,0.747,1.67,0.835,2.373
		c0.088,0.704,0.13,1.731,0.13,3.078v40.714c0,2.112,0.177,3.445,0.527,4.002c0.353,0.558,1.128,0.836,2.331,0.836
		c1.202,0,2.007,0.044,2.418,0.131c0.411,0.089,0.909,0.34,1.498,0.747c1.17,0.762,1.756,2.846,1.756,6.247
		c0,3.691-0.586,5.947-1.756,6.768c-1.528,1.057-5.161,1.231-10.906,0.527c-4.516-0.584-7.446-2.08-8.792-4.482
		c-1.643-2.873-2.462-7.446-2.462-13.722V183.873z"/>
</g>
<path fill="#38012F" d="M227.741,148.568v25.567h0.017c0,1.471,0.562,2.943,1.685,4.063c2.242,2.245,5.883,2.245,8.127,0
	c1.123-1.12,1.683-2.593,1.683-4.063h0.004v-25.614c-1.954,0.24-3.944,0.365-5.963,0.365
	C231.415,148.887,229.563,148.776,227.741,148.568z"/>
</svg>
