<?xml version="1.0" encoding="utf-8"?>
<!-- Generator: Adobe Illustrator 16.0.0, SVG Export Plug-In . SVG Version: 6.00 Build 0)  -->
<!DOCTYPE svg PUBLIC "-//W3C//DTD SVG 1.1//EN" "http://www.w3.org/Graphics/SVG/1.1/DTD/svg11.dtd">
<svg version="1.1" id="Layer_1" xmlns="http://www.w3.org/2000/svg" xmlns:xlink="http://www.w3.org/1999/xlink" x="0px" y="0px"
	 width="800px" height="17.591px" viewBox="0 0 800 17.591" enable-background="new 0 0 800 17.591" xml:space="preserve">
<g>
	
		<rect x="21.837" y="-6.735" transform="matrix(-0.7071 -0.7071 0.7071 -0.7071 48.7741 20.2026)" fill="#FFFFFF" width="13.469" height="13.469"/>
	
		<rect x="2.789" y="-6.735" transform="matrix(-0.7071 -0.7071 0.7071 -0.7071 16.2581 6.7336)" fill="#FFFFFF" width="13.469" height="13.469"/>
	
		<rect x="59.932" y="-6.735" transform="matrix(-0.7071 -0.7071 0.7071 -0.7071 113.806 47.1407)" fill="#FFFFFF" width="13.469" height="13.469"/>
	
		<rect x="40.884" y="-6.735" transform="matrix(-0.7071 -0.7071 0.7071 -0.7071 81.29 33.6717)" fill="#FFFFFF" width="13.469" height="13.469"/>
	
		<rect x="98.027" y="-6.735" transform="matrix(-0.7071 -0.7071 0.7071 -0.7071 178.8383 74.079)" fill="#FFFFFF" width="13.469" height="13.47"/>
	
		<rect x="78.98" y="-6.735" transform="matrix(-0.7071 -0.7071 0.7071 -0.7071 146.3219 60.6098)" fill="#FFFFFF" width="13.469" height="13.469"/>
	
		<rect x="136.122" y="-6.735" transform="matrix(-0.7071 -0.7071 0.7071 -0.7071 243.8698 101.0169)" fill="#FFFFFF" width="13.469" height="13.469"/>
	
		<rect x="117.075" y="-6.735" transform="matrix(-0.7071 -0.7071 0.7071 -0.7071 211.352 87.5502)" fill="#FFFFFF" width="13.469" height="13.469"/>
	
		<rect x="174.218" y="-6.735" transform="matrix(-0.7071 -0.7071 0.7071 -0.7071 308.9017 127.955)" fill="#FFFFFF" width="13.469" height="13.469"/>
	
		<rect x="155.17" y="-6.735" transform="matrix(-0.7071 -0.7071 0.7071 -0.7071 276.3857 114.4859)" fill="#FFFFFF" width="13.469" height="13.469"/>
	
		<rect x="212.313" y="-6.735" transform="matrix(-0.7071 -0.7071 0.7071 -0.7071 373.9376 154.889)" fill="#FFFFFF" width="13.47" height="13.469"/>
	
		<rect x="193.265" y="-6.735" transform="matrix(-0.7071 -0.7071 0.7071 -0.7071 341.4177 141.424)" fill="#FFFFFF" width="13.469" height="13.469"/>
	
		<rect x="250.408" y="-6.735" transform="matrix(-0.7071 -0.7071 0.7071 -0.7071 438.9749 181.8218)" fill="#FFFFFF" width="13.47" height="13.469"/>
	
		<rect x="231.36" y="-6.735" transform="matrix(-0.7071 -0.7071 0.7071 -0.7071 406.4539 168.3577)" fill="#FFFFFF" width="13.47" height="13.469"/>
	
		<rect x="288.503" y="-6.735" transform="matrix(-0.7071 -0.7071 0.7071 -0.7071 504.0032 208.764)" fill="#FFFFFF" width="13.47" height="13.469"/>
	
		<rect x="269.456" y="-6.735" transform="matrix(-0.7071 -0.7071 0.7071 -0.7071 471.4814 195.3001)" fill="#FFFFFF" width="13.469" height="13.469"/>
	
		<rect x="326.599" y="-6.735" transform="matrix(-0.7071 -0.7071 0.7071 -0.7071 569.0302 235.7076)" fill="#FFFFFF" width="13.469" height="13.469"/>
	
		<rect x="307.552" y="-6.735" transform="matrix(-0.7071 -0.7072 0.7072 -0.7071 536.5028 222.25)" fill="#FFFFFF" width="13.469" height="13.47"/>
	
		<rect x="364.694" y="-6.735" transform="matrix(-0.7071 -0.7071 0.7071 -0.7071 634.062 262.6457)" fill="#FFFFFF" width="13.469" height="13.469"/>
	
		<rect x="345.647" y="-6.735" transform="matrix(-0.7071 -0.7072 0.7072 -0.7071 601.5333 249.1894)" fill="#FFFFFF" width="13.469" height="13.47"/>
	
		<rect x="402.789" y="-6.735" transform="matrix(-0.7071 -0.7071 0.7071 -0.7071 699.1006 289.576)" fill="#FFFFFF" width="13.47" height="13.468"/>
	
		<rect x="383.742" y="-6.735" transform="matrix(-0.7071 -0.7072 0.7072 -0.7071 666.5638 276.1289)" fill="#FFFFFF" width="13.469" height="13.47"/>
	
		<rect x="440.885" y="-6.735" transform="matrix(-0.7071 -0.7071 0.7071 -0.7071 764.1178 316.5299)" fill="#FFFFFF" width="13.469" height="13.469"/>
	
		<rect x="421.837" y="-6.736" transform="matrix(-0.7071 -0.7071 0.7071 -0.7071 731.6017 303.0604)" fill="#FFFFFF" width="13.469" height="13.47"/>
	
		<rect x="459.933" y="-6.736" transform="matrix(-0.7071 -0.7071 0.7071 -0.7071 796.6338 329.9995)" fill="#FFFFFF" width="13.469" height="13.47"/>
	
		<rect x="498.027" y="-6.735" transform="matrix(-0.7071 -0.7071 0.7071 -0.7071 861.7008 356.9013)" fill="#FFFFFF" width="13.47" height="13.469"/>
	
		<rect x="478.98" y="-6.735" transform="matrix(-0.707 -0.7072 0.7072 -0.707 829.1314 343.4863)" fill="#FFFFFF" width="13.468" height="13.469"/>
	
		<rect x="536.122" y="-6.735" transform="matrix(-0.7071 -0.7071 0.7071 -0.7071 926.7151 383.857)" fill="#FFFFFF" width="13.47" height="13.469"/>
	
		<rect x="517.075" y="-6.735" transform="matrix(-0.7071 -0.7071 0.7071 -0.7071 894.1802 370.4074)" fill="#FFFFFF" width="13.469" height="13.469"/>
	
		<rect x="574.217" y="-6.735" transform="matrix(-0.7071 -0.7071 0.7071 -0.7071 991.7468 410.794)" fill="#FFFFFF" width="13.47" height="13.469"/>
	
		<rect x="555.17" y="-6.735" transform="matrix(-0.7071 -0.7071 0.7071 -0.7071 959.2106 397.3459)" fill="#FFFFFF" width="13.469" height="13.469"/>
	
		<rect x="612.313" y="-6.735" transform="matrix(-0.707 -0.7072 0.7072 -0.707 1056.7354 437.7766)" fill="#FFFFFF" width="13.468" height="13.469"/>
	
		<rect x="593.265" y="-6.735" transform="matrix(-0.7071 -0.7071 0.7071 -0.7071 1024.2644 424.2632)" fill="#FFFFFF" width="13.47" height="13.47"/>
	
		<rect x="650.408" y="-6.735" transform="matrix(-0.7071 -0.7071 0.7071 -0.7071 1121.7891 464.693)" fill="#FFFFFF" width="13.469" height="13.469"/>
	
		<rect x="631.36" y="-6.735" transform="matrix(-0.7071 -0.7071 0.7071 -0.7071 1089.2961 451.2003)" fill="#FFFFFF" width="13.47" height="13.47"/>
	
		<rect x="688.503" y="-6.735" transform="matrix(-0.7071 -0.7071 0.7071 -0.7071 1186.8203 491.6317)" fill="#FFFFFF" width="13.469" height="13.468"/>
	
		<rect x="669.456" y="-6.736" transform="matrix(-0.7071 -0.7071 0.7071 -0.7071 1154.3051 478.1625)" fill="#FFFFFF" width="13.469" height="13.47"/>
	
		<rect x="726.599" y="-6.735" transform="matrix(-0.7071 -0.7071 0.7071 -0.7071 1251.8516 518.5704)" fill="#FFFFFF" width="13.469" height="13.469"/>
	
		<rect x="707.55" y="-6.735" transform="matrix(-0.7071 -0.7071 0.7071 -0.7071 1219.3613 505.075)" fill="#FFFFFF" width="13.47" height="13.47"/>
	
		<rect x="764.694" y="-6.735" transform="matrix(-0.707 -0.7072 0.7072 -0.707 1316.8547 545.5372)" fill="#FFFFFF" width="13.468" height="13.469"/>
	
		<rect x="745.646" y="-6.735" transform="matrix(-0.7071 -0.7071 0.7071 -0.7071 1284.3948 532.0128)" fill="#FFFFFF" width="13.47" height="13.47"/>
	
		<rect x="783.741" y="-6.735" transform="matrix(0.7071 -0.7071 0.7071 0.7071 231.4963 558.922)" fill="#FFFFFF" width="13.469" height="13.47"/>
</g>
</svg>
